<svg width="236" height="151" viewBox="0 0 236 151" fill="none" xmlns="http://www.w3.org/2000/svg">
<g clip-path="url(#clip0)">
<path fill-rule="evenodd" clip-rule="evenodd" d="M0.0698242 75.5851C2.3407 79.4332 45.409 121.642 49.6375 123.281C56.8414 126.062 62.6362 121.49 63.6151 116.004C65.1031 107.852 50.8904 97.5664 41.8461 88.6901C37.8133 84.7281 32.0578 80.3093 29.787 75.547C34.5636 68.7664 48.0322 57.0708 54.7666 50.5566C58.0164 47.4328 64.7114 42.6709 64.4765 36.309C64.2416 29.8708 58.0945 25.2994 50.4989 27.3947C45.6439 28.7661 3.86767 70.0236 0.0698242 75.5851Z" fill="#F26651"/>
<path fill-rule="evenodd" clip-rule="evenodd" d="M206.096 75.5471C202.454 82.4427 188.673 93.6809 182.173 99.9665C178.689 103.319 171.602 107.814 172.111 114.785C172.62 121.528 179.158 126.252 186.519 123.281C189.534 122.062 232.837 79.4332 235.93 75.5089C232.289 69.376 190.708 28.8424 185.54 27.3567C178.023 25.1853 171.876 29.7948 171.484 36.3091C170.897 46.0996 194.389 60.7662 206.096 75.5471Z" fill="#F26651"/>
<path d="M126.825 130.408H110.175L112.947 112.389H124.049L126.825 130.408Z" fill="#C6621E"/>
<path d="M121.917 130.408H115.079L116.219 112.389H120.781L121.917 130.408Z" fill="#A0490E"/>
<path d="M139.153 54.3728C136.837 53.5756 134.631 51.8481 132.821 49.1382L118.5 23.1038L104.183 49.1382C102.371 51.8481 100.165 53.5735 97.8492 54.3728H139.153Z" fill="#0CAFAF"/>
<path d="M118.5 23.1038L104.183 49.1382C102.371 51.8481 100.165 53.5735 97.8492 54.3728H118.5V23.1038Z" fill="#1BC1A9"/>
<path d="M141.607 72.9377L131.391 54.3728H105.611L95.399 72.9377C92.4817 77.3067 88.9221 80.0911 85.1874 81.3756H151.817C148.078 80.0891 144.52 77.3067 141.607 72.9377Z" fill="#1BC1A9"/>
<path d="M150.178 100.821L139.483 81.3757H97.517L86.8222 100.821C82.8197 106.81 77.9394 110.627 72.8195 112.389H164.183C159.059 110.627 154.178 106.81 150.178 100.821Z" fill="#1BC1A9"/>
<path d="M131.095 54.3728C129.68 53.5756 128.335 51.8481 127.234 49.1382L118.5 23.1038L109.762 49.1382C108.661 51.8481 107.316 53.5735 105.901 54.3728H131.095Z" fill="#109BAD"/>
<path d="M109.762 49.1382C108.661 51.8481 107.316 53.5735 105.901 54.3728H118.5V23.1038L109.762 49.1382Z" fill="#0CAFAF"/>
<path d="M132.589 72.9377L126.364 54.3728H110.636L104.411 72.9377C102.629 77.3067 100.463 80.0911 98.1814 81.3756H138.823C136.541 80.0891 134.371 77.3067 132.589 72.9377Z" fill="#0CAFAF"/>
<path d="M141.607 72.9377L131.391 54.3728H106.549L105.901 55.0211L132.255 81.3756H151.815C148.078 80.0891 144.52 77.3067 141.607 72.9377Z" fill="#0CAFAF"/>
<path d="M132.589 72.9377L126.364 54.3728H110.636L109.287 58.4035L132.255 81.3756H138.823C136.541 80.0891 134.371 77.3067 132.589 72.9377Z" fill="#109BAD"/>
<path d="M137.82 100.821L131.301 81.3757H105.701L99.178 100.821C96.7359 106.81 93.7642 110.627 90.6375 112.389H146.363C143.238 110.627 140.262 106.81 137.82 100.821Z" fill="#0CAFAF"/>
<path d="M150.178 100.821L139.483 81.3757H99.621L98.1814 82.8153L127.755 112.389H164.181C159.059 110.627 154.178 106.81 150.178 100.821Z" fill="#0CAFAF"/>
<path d="M137.82 100.821L131.301 81.3757H105.701L103.452 88.0842L127.757 112.389H146.361C143.238 110.627 140.262 106.81 137.82 100.821Z" fill="#109BAD"/>
<path d="M139.153 55.8828H97.8472C97.1104 55.8828 96.4802 55.3493 96.3594 54.6225C96.2386 53.8956 96.6573 53.1849 97.356 52.9454C99.4498 52.2246 101.377 50.6159 102.929 48.2986L117.177 22.3749C117.709 21.4105 119.293 21.4105 119.823 22.3749L134.144 48.4113C135.621 50.6159 137.546 52.2226 139.642 52.9454C140.341 53.1849 140.761 53.8956 140.639 54.6225C140.516 55.3493 139.89 55.8828 139.153 55.8828ZM103.024 52.8628H133.962C133.095 52.0313 132.291 51.0669 131.565 49.9777L118.5 26.2365L105.506 49.867C104.743 51.0105 103.913 52.0112 103.024 52.8628Z" fill="#093260"/>
<path d="M151.815 82.8857H85.1854C84.4485 82.8857 83.8163 82.3521 83.6975 81.6253C83.5747 80.8985 83.9955 80.1898 84.6941 79.9482C88.2658 78.7181 91.5334 76.0041 94.1407 72.0982L104.286 53.644C104.552 53.1608 105.059 52.8608 105.609 52.8608H131.389C131.939 52.8608 132.446 53.1608 132.712 53.642L142.928 72.207C145.465 76.0021 148.73 78.7161 152.304 79.9462C153.002 80.1858 153.423 80.8945 153.3 81.6233C153.184 82.3521 152.552 82.8857 151.815 82.8857ZM91.0562 79.8657H145.938C143.872 78.2772 141.988 76.2296 140.351 73.7753L130.497 55.8829H106.503L96.7218 73.6646C95.0427 76.1853 93.134 78.2651 91.0562 79.8657Z" fill="#093260"/>
<path d="M164.181 113.899H72.8195C72.0826 113.899 71.4504 113.366 71.3316 112.639C71.2088 111.912 71.6296 111.203 72.3282 110.962C77.3394 109.236 81.9197 105.439 85.5679 99.981L96.1943 80.647C96.46 80.1638 96.9674 79.8638 97.517 79.8638H139.483C140.033 79.8638 140.54 80.1638 140.806 80.647L151.501 100.092C155.076 105.439 159.657 109.236 164.672 110.96C165.37 111.201 165.791 111.91 165.668 112.637C165.55 113.368 164.919 113.899 164.181 113.899ZM79.1393 110.879H157.855C154.525 108.63 151.501 105.518 148.921 101.658L138.589 82.8838H98.4089L88.143 101.547C85.5196 105.481 82.4754 108.622 79.1393 110.879Z" fill="#093260"/>
<path d="M126.863 131.918C126.853 131.921 126.837 131.918 126.823 131.918H110.173C109.732 131.918 109.313 131.725 109.027 131.391C108.741 131.057 108.615 130.614 108.681 130.177L111.453 112.16C111.568 111.423 112.2 110.879 112.945 110.879H124.047C124.792 110.879 125.426 111.423 125.539 112.16L128.265 129.841C128.335 130.016 128.373 130.207 128.373 130.406C128.373 131.242 127.699 131.918 126.863 131.918ZM111.935 128.898H125.063L122.752 113.901H114.242L111.935 128.898Z" fill="#093260"/>
<path d="M134.929 131.918H102.067C101.234 131.918 100.557 131.242 100.557 130.408C100.557 129.575 101.234 128.898 102.067 128.898H134.929C135.762 128.898 136.439 129.575 136.439 130.408C136.439 131.242 135.762 131.918 134.929 131.918Z" fill="#093260"/>
<path d="M116.64 119.939H112.015C111.182 119.939 110.505 119.263 110.505 118.429C110.505 117.596 111.182 116.919 112.015 116.919H116.64C117.473 116.919 118.15 117.596 118.15 118.429C118.15 119.263 117.473 119.939 116.64 119.939Z" fill="#093260"/>
<path d="M124.23 123.853H119.605C118.772 123.853 118.095 123.177 118.095 122.343C118.095 121.509 118.772 120.833 119.605 120.833H124.23C125.063 120.833 125.74 121.509 125.74 122.343C125.74 123.177 125.063 123.853 124.23 123.853Z" fill="#093260"/>
<path d="M115.748 126.873H111.123C110.29 126.873 109.613 126.197 109.613 125.363C109.613 124.53 110.29 123.853 111.123 123.853H115.748C116.581 123.853 117.258 124.53 117.258 125.363C117.258 126.197 116.581 126.873 115.748 126.873Z" fill="#093260"/>
<path d="M126.656 10.4642C126.511 10.0233 126.133 9.70517 125.674 9.63873L121.47 9.02467L119.589 5.21343C119.176 4.38394 117.819 4.38394 117.411 5.21343L115.526 9.02467L111.322 9.63873C110.865 9.70517 110.485 10.0233 110.344 10.4642C110.199 10.9051 110.32 11.3843 110.65 11.7105L113.694 14.6761L112.975 18.8638C112.897 19.3209 113.086 19.7799 113.459 20.0517C113.831 20.3235 114.328 20.3577 114.737 20.1463L118.5 18.1692L122.259 20.1463C122.436 20.2369 122.633 20.2832 122.825 20.2832C123.076 20.2832 123.324 20.2047 123.537 20.0517C123.912 19.7799 124.099 19.3209 124.021 18.8638L123.306 14.6761L126.346 11.7105C126.678 11.3843 126.797 10.9051 126.656 10.4642Z" fill="#ED9015"/>
<path d="M117.411 5.21538L115.526 9.02662L111.322 9.64069C110.865 9.70713 110.485 10.0252 110.344 10.4662C110.199 10.9071 110.32 11.3862 110.65 11.7124L113.694 14.678L112.975 18.8658C112.897 19.3228 113.086 19.7818 113.459 20.0536C113.831 20.3254 114.328 20.3597 114.737 20.1483L118.5 18.1712V4.59326C118.055 4.59326 117.616 4.80265 117.411 5.21538Z" fill="#EAB818"/>
<path d="M122.825 21.7932C122.392 21.7932 121.959 21.6885 121.57 21.4912L118.5 19.8745L115.438 21.4832C114.522 21.9603 113.39 21.8697 112.571 21.2738C111.723 20.6577 111.308 19.6369 111.486 18.6081L112.071 15.2036L109.597 12.7936C108.844 12.0507 108.584 10.9796 108.91 9.99106C109.221 9.02466 110.084 8.29382 111.105 8.14483L114.524 7.64552L116.058 4.54499C116.503 3.64302 117.439 3.0813 118.498 3.0813C119.557 3.0813 120.493 3.64101 120.942 4.54097L122.472 7.64552L125.891 8.14483C126.92 8.29382 127.763 9.00251 128.09 9.99106C128.412 10.9957 128.146 12.0628 127.401 12.7916L124.927 15.2036L125.508 18.6101C125.686 19.6369 125.271 20.6597 124.423 21.2738C123.952 21.614 123.4 21.7932 122.825 21.7932ZM118.5 16.6592C118.742 16.6592 118.983 16.7176 119.205 16.8324L122.434 18.5316L121.818 14.9318C121.733 14.4425 121.896 13.9432 122.253 13.5949L124.866 11.046L121.252 10.5186C120.761 10.4461 120.336 10.138 120.117 9.69309L118.5 6.41941L116.879 9.6951C116.662 10.14 116.237 10.4481 115.746 10.5206L112.134 11.046L114.749 13.5949C115.106 13.9412 115.269 14.4425 115.184 14.9318L114.564 18.5316L117.797 16.8324C118.019 16.7156 118.258 16.6592 118.5 16.6592Z" fill="#093260"/>
<path d="M91.7609 82.8859C90.9274 82.8859 90.2509 82.2094 90.2509 81.3759C90.2509 80.5424 90.9274 79.8659 91.7609 79.8659C105.816 79.8659 117.254 68.4301 117.254 54.373C117.254 53.5395 117.93 52.863 118.764 52.863C119.597 52.863 120.274 53.5395 120.274 54.373C120.274 70.0952 107.481 82.8859 91.7609 82.8859Z" fill="#093260"/>
<path d="M115.418 82.8857C114.584 82.8857 113.908 82.2093 113.908 81.3757C113.908 80.5422 114.584 79.8657 115.418 79.8657C125.525 79.8657 133.747 71.6433 133.747 61.5364C133.747 60.7028 134.423 60.0264 135.257 60.0264C136.09 60.0264 136.767 60.7028 136.767 61.5364C136.765 73.3083 127.188 82.8857 115.418 82.8857Z" fill="#093260"/>
<path d="M81.352 113.734C80.5185 113.734 79.842 113.058 79.842 112.224C79.842 111.39 80.5185 110.714 81.352 110.714C97.5291 110.714 110.69 97.5529 110.69 81.3757C110.69 80.5422 111.367 79.8657 112.2 79.8657C113.034 79.8657 113.71 80.5422 113.71 81.3757C113.71 99.2179 99.1941 113.734 81.352 113.734Z" fill="#093260"/>
<path d="M108.013 113.899C107.179 113.899 106.503 113.223 106.503 112.389C106.503 111.556 107.179 110.879 108.013 110.879C124.28 110.879 137.516 97.6435 137.516 81.3757C137.516 80.5422 138.192 79.8657 139.026 79.8657C139.859 79.8657 140.536 80.5422 140.536 81.3757C140.536 99.3105 125.945 113.899 108.013 113.899Z" fill="#093260"/>
<path d="M103.45 55.8831C102.617 55.8831 101.94 55.2066 101.94 54.3731C101.94 53.5396 102.617 52.8631 103.45 52.8631C113.986 52.8631 122.557 44.2924 122.557 33.7566C122.557 32.9231 123.233 32.2466 124.067 32.2466C124.9 32.2466 125.577 32.9231 125.577 33.7566C125.579 45.9574 115.651 55.8831 103.45 55.8831Z" fill="#093260"/>
<path d="M101.538 84.0596C103.576 84.0596 105.228 82.4073 105.228 80.3692C105.228 78.331 103.576 76.6787 101.538 76.6787C99.4995 76.6787 97.8472 78.331 97.8472 80.3692C97.8472 82.4073 99.4995 84.0596 101.538 84.0596Z" fill="#EF678B"/>
<path d="M101.536 79.3625C99.9753 79.3625 98.6445 80.337 98.111 81.7101C98.6465 83.0832 99.9753 84.0576 101.536 84.0576C103.1 84.0576 104.427 83.0832 104.964 81.7101C104.427 80.337 103.102 79.3625 101.536 79.3625Z" fill="#D84875"/>
<path d="M101.536 85.5675C98.6687 85.5675 96.3372 83.2361 96.3372 80.3691C96.3372 77.5021 98.6687 75.1707 101.536 75.1707C104.405 75.1707 106.738 77.5021 106.738 80.3691C106.738 83.2361 104.405 85.5675 101.536 85.5675ZM101.536 78.1907C100.334 78.1907 99.3572 79.1671 99.3572 80.3691C99.3572 81.571 100.334 82.5475 101.536 82.5475C102.74 82.5475 103.718 81.571 103.718 80.3691C103.718 79.1671 102.74 78.1907 101.536 78.1907Z" fill="#093260"/>
<path d="M124.906 85.0641C126.943 85.0641 128.595 83.4127 128.595 81.3757C128.595 79.3386 126.943 77.6873 124.906 77.6873C122.869 77.6873 121.218 79.3386 121.218 81.3757C121.218 83.4127 122.869 85.0641 124.906 85.0641Z" fill="#EF678B"/>
<path d="M124.906 80.3691C123.342 80.3691 122.015 81.3436 121.478 82.7167C122.017 84.0898 123.342 85.0642 124.906 85.0642C126.467 85.0642 127.798 84.0898 128.335 82.7167C127.796 81.3436 126.467 80.3691 124.906 80.3691Z" fill="#D84875"/>
<path d="M124.906 86.5742C122.039 86.5742 119.708 84.2428 119.708 81.3758C119.708 78.5068 122.039 76.1733 124.906 76.1733C127.773 76.1733 130.105 78.5068 130.105 81.3758C130.105 84.2428 127.771 86.5742 124.906 86.5742ZM124.906 79.1933C123.704 79.1933 122.728 80.1718 122.728 81.3758C122.728 82.5778 123.704 83.5542 124.906 83.5542C126.108 83.5542 127.085 82.5778 127.085 81.3758C127.085 80.1718 126.106 79.1933 124.906 79.1933Z" fill="#093260"/>
<path d="M142.511 115.912C144.548 115.912 146.199 114.261 146.199 112.224C146.199 110.187 144.548 108.536 142.511 108.536C140.474 108.536 138.823 110.187 138.823 112.224C138.823 114.261 140.474 115.912 142.511 115.912Z" fill="#EF678B"/>
<path d="M142.511 111.218C140.947 111.218 139.62 112.192 139.082 113.565C139.622 114.938 140.947 115.913 142.511 115.913C144.071 115.913 145.402 114.938 145.94 113.565C145.4 112.194 144.071 111.218 142.511 111.218Z" fill="#D84875"/>
<path d="M142.511 117.422C139.644 117.422 137.313 115.091 137.313 112.224C137.313 109.357 139.644 107.026 142.511 107.026C145.378 107.026 147.709 109.357 147.709 112.224C147.709 115.091 145.378 117.422 142.511 117.422ZM142.511 110.046C141.309 110.046 140.333 111.022 140.333 112.224C140.333 113.426 141.309 114.402 142.511 114.402C143.713 114.402 144.689 113.426 144.689 112.224C144.689 111.022 143.711 110.046 142.511 110.046Z" fill="#093260"/>
<path d="M91.7609 115.264C93.798 115.264 95.4493 113.613 95.4493 111.576C95.4493 109.539 93.798 107.887 91.7609 107.887C89.7239 107.887 88.0725 109.539 88.0725 111.576C88.0725 113.613 89.7239 115.264 91.7609 115.264Z" fill="#EF678B"/>
<path d="M91.7609 110.569C90.1966 110.569 88.8698 111.544 88.3322 112.917C88.8718 114.29 90.1966 115.264 91.7609 115.264C93.3212 115.264 94.6521 114.29 95.1896 112.917C94.65 111.544 93.3212 110.569 91.7609 110.569Z" fill="#D84875"/>
<path d="M91.7609 116.774C88.8939 116.774 86.5625 114.443 86.5625 111.576C86.5625 108.707 88.8939 106.373 91.7609 106.373C94.6279 106.373 96.9593 108.707 96.9593 111.576C96.9593 114.443 94.6279 116.774 91.7609 116.774ZM91.7609 109.393C90.559 109.393 89.5825 110.372 89.5825 111.576C89.5825 112.778 90.559 113.754 91.7609 113.754C92.9629 113.754 93.9393 112.778 93.9393 111.576C93.9393 110.372 92.9609 109.393 91.7609 109.393Z" fill="#093260"/>
<path d="M118.498 61.752C120.536 61.752 122.188 60.0997 122.188 58.0615C122.188 56.0234 120.536 54.3711 118.498 54.3711C116.46 54.3711 114.808 56.0234 114.808 58.0615C114.808 60.0997 116.46 61.752 118.498 61.752Z" fill="#EAB818"/>
<path d="M118.496 57.0549C116.936 57.0549 115.605 58.0294 115.071 59.4025C115.607 60.7756 116.936 61.75 118.496 61.75C120.06 61.75 121.387 60.7756 121.925 59.4025C121.387 58.0294 120.06 57.0549 118.496 57.0549Z" fill="#ED9015"/>
<path d="M118.496 63.2599C115.629 63.2599 113.298 60.9285 113.298 58.0615C113.298 55.1945 115.629 52.863 118.496 52.863C121.365 52.863 123.698 55.1945 123.698 58.0615C123.698 60.9285 121.365 63.2599 118.496 63.2599ZM118.496 55.883C117.294 55.883 116.318 56.8595 116.318 58.0615C116.318 59.2634 117.294 60.2399 118.496 60.2399C119.7 60.2399 120.678 59.2634 120.678 58.0615C120.678 56.8595 119.7 55.883 118.496 55.883Z" fill="#093260"/>
<path d="M122.595 44.0686C124.633 44.0686 126.286 42.4164 126.286 40.3782C126.286 38.34 124.633 36.6877 122.595 36.6877C120.557 36.6877 118.905 38.34 118.905 40.3782C118.905 42.4164 120.557 44.0686 122.595 44.0686Z" fill="#EAB818"/>
<path d="M122.593 39.3716C121.033 39.3716 119.702 40.346 119.168 41.7191C119.704 43.0922 121.033 44.0667 122.593 44.0667C124.157 44.0667 125.484 43.0922 126.022 41.7191C125.484 40.346 124.159 39.3716 122.593 39.3716Z" fill="#ED9015"/>
<path d="M122.593 45.5767C119.726 45.5767 117.395 43.2452 117.395 40.3782C117.395 37.5092 119.726 35.1758 122.593 35.1758C125.462 35.1758 127.796 37.5092 127.796 40.3782C127.796 43.2452 125.462 45.5767 122.593 45.5767ZM122.593 38.1958C121.391 38.1958 120.415 39.1743 120.415 40.3782C120.415 41.5802 121.391 42.5567 122.593 42.5567C123.797 42.5567 124.776 41.5802 124.776 40.3782C124.776 39.1743 123.797 38.1958 122.593 38.1958Z" fill="#093260"/>
<path d="M132.549 104.181C134.587 104.181 136.239 102.529 136.239 100.49C136.239 98.4523 134.587 96.8 132.549 96.8C130.511 96.8 128.859 98.4523 128.859 100.49C128.859 102.529 130.511 104.181 132.549 104.181Z" fill="#EAB818"/>
<path d="M132.551 99.4839C130.987 99.4839 129.66 100.458 129.122 101.831C129.662 103.205 130.987 104.179 132.551 104.179C134.111 104.179 135.442 103.205 135.98 101.831C135.44 100.46 134.111 99.4839 132.551 99.4839Z" fill="#ED9015"/>
<path d="M132.551 105.689C129.682 105.689 127.349 103.358 127.349 100.491C127.349 97.6215 129.682 95.2881 132.551 95.2881C135.418 95.2881 137.749 97.6215 137.749 100.491C137.749 103.358 135.416 105.689 132.551 105.689ZM132.551 98.3081C131.347 98.3081 130.369 99.2866 130.369 100.491C130.369 101.693 131.347 102.669 132.551 102.669C133.753 102.669 134.729 101.693 134.729 100.491C134.729 99.2886 133.751 98.3081 132.551 98.3081Z" fill="#093260"/>
<path d="M108.174 98.6422C110.211 98.6422 111.862 96.9909 111.862 94.9538C111.862 92.9167 110.211 91.2654 108.174 91.2654C106.137 91.2654 104.485 92.9167 104.485 94.9538C104.485 96.9909 106.137 98.6422 108.174 98.6422Z" fill="#EAB818"/>
<path d="M108.174 93.9473C106.613 93.9473 105.282 94.9217 104.745 96.2948C105.284 97.6679 106.613 98.6424 108.174 98.6424C109.738 98.6424 111.065 97.6679 111.602 96.2948C111.065 94.9237 109.738 93.9473 108.174 93.9473Z" fill="#ED9015"/>
<path d="M108.174 100.152C105.307 100.152 102.975 97.8209 102.975 94.9539C102.975 92.0849 105.307 89.7515 108.174 89.7515C111.041 89.7515 113.372 92.0849 113.372 94.9539C113.372 97.8209 111.041 100.152 108.174 100.152ZM108.174 92.7715C106.972 92.7715 105.995 93.75 105.995 94.9539C105.995 96.1559 106.972 97.1323 108.174 97.1323C109.376 97.1323 110.352 96.1559 110.352 94.9539C110.352 93.752 109.376 92.7715 108.174 92.7715Z" fill="#093260"/>
</g>
<defs>
<clipPath id="clip0">
<rect width="236" height="151" fill="white"/>
</clipPath>
</defs>
</svg>
